<svg width="50" height="49" viewBox="0 0 50 49" fill="none" xmlns="http://www.w3.org/2000/svg">
<path d="M8.8542 0H41.1459C46.0417 0 50 3.9583 50 8.8542V39.8959C50 44.7917 46.0417 48.7501 41.1458 48.7501H8.8542C3.9583 48.75 0 44.7917 0 39.8958V8.8542C0 3.9583 3.9583 0 8.8542 0Z" fill="#FFFEFF"/>
<path d="M24.2289 29.2499H16.4789L14.8956 34.1457C14.8539 34.3332 14.6873 34.4582 14.4998 34.4374H10.5831C10.3539 34.4374 10.2914 34.3124 10.3539 34.0624L17.0622 14.7499C17.1247 14.5416 17.1872 14.3124 17.2705 14.0624C17.3538 13.6249 17.3955 13.1666 17.3955 12.7082C17.3747 12.604 17.458 12.4999 17.5622 12.479H17.6247H22.958C23.1247 12.479 23.208 12.5415 23.2288 12.6457L30.833 34.104C30.8955 34.3332 30.833 34.4373 30.6247 34.4373H26.2705C26.1247 34.4581 25.9788 34.354 25.9372 34.2081L24.2289 29.2499ZM17.6872 25.0207H22.9789L20.3122 16.3332L17.6872 25.0207Z" fill="#051937"/>
<path d="M35.3743 16.0416C34.6868 16.0624 34.0201 15.7916 33.5201 15.3124C33.0409 14.7916 32.7909 14.1041 32.8118 13.3957C32.791 12.6874 33.0618 12.0207 33.5618 11.5415C34.0618 11.0623 34.7285 10.8123 35.416 10.8123C36.2285 10.8123 36.8535 11.0623 37.3118 11.5415C37.7701 12.0415 38.0201 12.7082 37.9993 13.3957C38.0201 14.104 37.7701 14.7915 37.2701 15.3124C36.791 15.8124 36.0826 16.0832 35.3743 16.0416Z" fill="#051937"/>
<path d="M33.041 34.1249V18.0832C33.041 17.8749 33.1243 17.7915 33.3118 17.7915H37.4368C37.6243 17.7915 37.7076 17.8957 37.7076 18.0832V34.1249C37.7076 34.3541 37.6243 34.4582 37.4368 34.4582H33.3535C33.1451 34.4582 33.041 34.3332 33.041 34.1249Z" fill="#051937"/>
</svg>
