<svg width="50" height="50" viewBox="0 0 50 50" fill="none" xmlns="http://www.w3.org/2000/svg">
<path d="M24.9958 0C11.1792 0 5.56348e-06 11.1812 5.56348e-06 25C-0.00218574 28.2837 0.642963 31.5355 1.89855 34.5697C3.15415 37.6038 4.99555 40.3607 7.31745 42.6826C9.63935 45.0045 12.3962 46.8459 15.4303 48.1015C18.4645 49.357 21.7163 50.0022 25 50C38.8188 50 50 38.8187 50 25C49.9979 11.1812 38.725 0 24.9958 0ZM13.2708 30.3646C14.0875 31.4542 15.1792 31.9104 16.7229 31.9104C17.4521 31.9104 18.1792 31.8187 18.8146 31.5458C19.4521 31.275 20.1792 30.9083 21.0854 30.3646L23.6333 34C21.5438 35.7292 19.1792 36.5458 16.4521 36.5458C14.2688 36.5458 12.4521 36.0917 10.8167 35.1833C9.22902 34.2467 7.96118 32.8526 7.17917 31.1833C6.36251 29.4542 5.90626 27.4542 5.90626 25.0896C5.90626 22.8188 6.3625 20.7271 7.17709 19C7.95486 17.2794 9.22124 15.8254 10.8188 14.8187C12.3625 13.8187 14.2708 13.3646 16.3625 13.3646C17.8188 13.3646 19.1813 13.5458 20.2729 14C21.4976 14.4741 22.6342 15.1501 23.6354 16L21.0896 19.4542C20.4433 18.977 19.7417 18.5797 19 18.2708C18.3646 18 17.5458 17.9083 16.8167 17.9083C13.7271 17.9083 12.1813 20.2708 12.1813 25.0875C12.0917 27.5458 12.5458 29.2708 13.2729 30.3625L13.2708 30.3646ZM38.2708 36C37.3625 38.8187 35.9979 40.9104 34.0875 42.4542C32.1792 44.0021 29.6333 44.8187 26.4521 45.0917L25.8167 40.8208C27.9063 40.5458 29.4521 40.0917 30.4521 39.3625C30.8146 39.0917 31.5438 38.2729 31.5438 38.2729L23.9979 14.0917H30.2688L34.6333 32.1812L39.2708 14.0917H45.3604L38.2708 36Z" fill="#FFFEFF"/>
</svg>
