<svg width="50" height="78" viewBox="0 0 50 78" fill="none" xmlns="http://www.w3.org/2000/svg">
<path fill-rule="evenodd" clip-rule="evenodd" d="M0 38.5128C0 32.1694 5.14254 27.0271 11.4865 27.0271H22.9732V49.9996H11.4865C5.14266 49.9996 0 44.8566 0 38.5128ZM11.4865 22.973H22.9732V0H11.4865C5.1427 0 0 5.1427 0 11.4865C0 17.8303 5.14266 22.973 11.4865 22.973ZM50 11.4865C50 17.8303 44.8574 22.973 38.5136 22.973H27.0272V0H38.5136C44.8574 0 50 5.1427 50 11.4865ZM27.0272 38.5128C27.0272 32.1694 32.1698 27.0271 38.5136 27.0271C44.8574 27.0271 50 32.1694 50 38.5128C50 44.8566 44.8574 49.9996 38.5136 49.9996C32.1698 49.9996 27.0272 44.8566 27.0272 38.5128ZM11.4865 54.0537H22.9732V65.5413C22.9732 71.8851 17.8303 77.028 11.4865 77.028C5.1427 77.028 0 71.8851 0 65.5413C0 59.1975 5.14295 54.0537 11.4865 54.0537Z" fill="#FFFEFF"/>
</svg>
