<svg width="50" height="50" viewBox="0 0 50 50" fill="none" xmlns="http://www.w3.org/2000/svg">
<path d="M0 0H50V50H0V0Z" fill="#FFFEFF"/>
<path d="M33.5873 39.0626C34.5944 40.707 35.9048 41.9157 38.2223 41.9157C40.169 41.9157 41.4127 40.9427 41.4127 39.5982C41.4127 37.9871 40.135 37.4165 37.9921 36.4792L36.8175 35.9752C33.427 34.5308 31.1746 32.7212 31.1746 28.8958C31.1746 25.372 33.8596 22.6895 38.0556 22.6895C41.0429 22.6895 43.1905 23.7291 44.7381 26.4514L41.0794 28.8006C40.2738 27.3562 39.4048 26.7871 38.0556 26.7871C36.6794 26.7871 35.8071 27.6602 35.8071 28.8006C35.8071 30.2102 36.6802 30.7808 38.696 31.6538L39.8706 32.1569C43.8627 33.8688 46.1166 35.6141 46.1166 39.5379C46.1166 43.7681 42.7936 46.0855 38.3309 46.0855C33.9674 46.0855 31.1483 44.0062 29.7689 41.2808L33.5873 39.0626ZM16.9896 39.4697C17.7277 40.7793 18.3992 41.8864 20.0135 41.8864C21.5571 41.8864 22.531 41.2824 22.531 38.9341V22.9578H27.2294V38.9975C27.2294 43.8625 24.3771 46.0769 20.2135 46.0769C16.4516 46.0769 14.273 44.13 13.165 41.7852L16.9896 39.4697Z" fill="#051937"/>
</svg>
