<svg width="50" height="56" viewBox="0 0 50 56" fill="none" xmlns="http://www.w3.org/2000/svg">
<path d="M48.1246 27.1865C48.1222 25.6965 47.6005 24.254 46.6491 23.1072C45.6978 21.9604 44.3764 21.1812 42.9125 20.9036L50 0H16.499L23.5983 20.945C22.3584 21.2212 21.2288 21.8605 20.3537 22.7813C19.4785 23.7022 18.8976 24.8629 18.685 26.1153C18.4723 27.3677 18.6376 28.6551 19.1597 29.8132C19.6818 30.9713 20.5371 31.9476 21.6164 32.6175C20.7248 33.9426 19.6876 35.1636 18.5243 36.2579C16.7235 37.9802 14.6077 39.3394 12.2926 40.2612C11.2059 39.6301 10.3822 38.6294 9.97174 37.4417C9.56123 36.254 9.59126 34.9583 10.0563 33.7909L10.1352 33.6075L10.2812 33.2624C11.5949 32.8066 12.7244 31.9352 13.4986 30.7801C14.2727 29.625 14.6495 28.2491 14.5717 26.8607C14.4939 25.4724 13.9659 24.1471 13.0676 23.0857C12.1693 22.0242 10.9496 21.2844 9.59315 20.9782C8.23673 20.672 6.81748 20.8161 5.55028 21.3886C4.28308 21.9612 3.23694 22.9311 2.57027 24.1514C1.9036 25.3717 1.65271 26.7761 1.85557 28.1517C2.05843 29.5274 2.704 30.7995 3.69454 31.7755C3.48156 32.231 3.25675 32.6925 3.02602 33.1677C1.74797 35.5189 0.817991 38.0431 0.265166 40.6615C-0.651833 46.1832 0.827197 50.6065 4.42814 53.1011C6.36395 54.4854 8.68619 55.2257 11.066 55.2171C15.2704 55.2171 19.5241 53.1051 23.6871 51.0384C26.5956 49.4567 29.6643 48.1894 32.8413 47.258C34.0133 46.9891 35.198 46.7792 36.391 46.6289C38.9174 46.4271 41.381 45.7387 43.6461 44.6016C44.9241 43.8719 46.0259 42.8701 46.8734 41.6671C47.721 40.464 48.2936 39.0893 48.5506 37.6403C48.9701 35.179 48.4869 32.6489 47.1898 30.5153C47.8036 29.5136 48.1258 28.3614 48.1246 27.1865ZM45.6142 27.1865C45.6142 27.9549 45.3863 28.706 44.9595 29.3449C44.5326 29.9838 43.9258 30.4817 43.216 30.7757C42.5061 31.0698 41.725 31.1467 40.9714 30.9968C40.2178 30.8469 39.5255 30.4769 38.9822 29.9336C38.4389 29.3903 38.0689 28.698 37.919 27.9444C37.7691 27.1908 37.846 26.4097 38.1401 25.6998C38.4341 24.99 38.9321 24.3832 39.5709 23.9563C40.2098 23.5295 40.9609 23.3016 41.7293 23.3016C42.7591 23.3032 43.7464 23.713 44.4746 24.4412C45.2028 25.1694 45.6126 26.1567 45.6142 27.1865ZM46.4957 2.51041L40.2364 20.9687C39.9685 21.034 39.705 21.1163 39.4476 21.2152L33.2653 8.59415L27.0632 21.1403C26.7931 21.0471 26.517 20.972 26.2369 20.9155L19.9994 2.51041H46.4957ZM24.9867 23.3016C25.755 23.3016 26.5061 23.5295 27.145 23.9563C27.7839 24.3832 28.2818 24.99 28.5759 25.6998C28.8699 26.4097 28.9468 27.1908 28.7969 27.9444C28.647 28.698 28.277 29.3903 27.7337 29.9336C27.1904 30.4769 26.4982 30.8469 25.7446 30.9968C24.991 31.1467 24.2098 31.0698 23.5 30.7757C22.7901 30.4817 22.1833 29.9838 21.7565 29.3449C21.3296 28.706 21.1017 27.9549 21.1017 27.1865C21.1028 26.1565 21.5124 25.169 22.2408 24.4406C22.9691 23.7123 23.9566 23.3027 24.9867 23.3016ZM8.17896 23.3391C8.94732 23.3391 9.69843 23.5669 10.3373 23.9938C10.9762 24.4207 11.4741 25.0274 11.7682 25.7373C12.0622 26.4472 12.1391 27.2283 11.9892 27.9819C11.8393 28.7355 11.4693 29.4277 10.926 29.9711C10.3827 30.5144 9.69047 30.8844 8.93687 31.0343C8.18327 31.1842 7.40214 31.1072 6.69227 30.8132C5.98239 30.5192 5.37565 30.0212 4.94877 29.3824C4.52189 28.7435 4.29404 27.9924 4.29404 27.224C4.29509 26.1943 4.70445 25.2071 5.43236 24.4788C6.16027 23.7505 7.14928 23.3407 8.17896 23.3391ZM46.0756 37.2104C45.881 38.2976 45.4495 39.3286 44.8119 40.2303C44.1742 41.1321 43.346 41.8825 42.386 42.4284C40.3948 43.397 38.2381 43.9792 36.0301 44.1441C34.7837 44.3236 33.496 44.5089 32.2359 44.8205C28.8814 45.7922 25.6417 47.1232 22.5729 48.7902C16.3333 51.8883 10.9378 54.5644 5.86576 51.0443C2.14452 48.4648 2.31609 43.6925 2.74994 41.0776C3.25973 38.6968 4.11197 36.4024 5.28006 34.2662C5.46149 33.8915 5.63897 33.5266 5.81251 33.1638C6.34249 33.3748 6.89825 33.514 7.46508 33.5779C6.96236 35.3507 7.10222 37.2441 7.85997 38.9238C8.61773 40.6035 9.94463 41.9614 11.6064 42.7578L12.0895 43.0062L12.6003 42.8228C15.4501 41.7951 18.0537 40.183 20.2439 38.0899C21.6901 36.7281 22.9607 35.1912 24.0263 33.5148C25.3892 33.7221 26.7826 33.4832 27.9986 32.8337C29.2146 32.1841 30.188 31.1589 30.7736 29.9108C31.3591 28.6627 31.5254 27.2588 31.2477 25.9085C30.9699 24.5581 30.263 23.3338 29.2325 22.4181L33.2515 14.2914L37.3119 22.5739C36.1566 23.6873 35.4625 25.1946 35.3675 26.7963C35.2725 28.3979 35.7836 29.9767 36.7992 31.2189C37.8147 32.461 39.2605 33.2756 40.8491 33.5008C42.4377 33.7259 44.0528 33.3452 45.3736 32.4341C46.1062 33.9114 46.3513 35.583 46.0737 37.2084L46.0756 37.2104Z" fill="white"/>
</svg>
