<svg width="50" height="57" viewBox="0 0 50 57" fill="none" xmlns="http://www.w3.org/2000/svg">
<path d="M48.778 13.0318C46.6735 9.73586 42.148 8.36667 36.0503 9.15253C35.8349 9.17779 35.6066 9.21592 35.3912 9.24117C35.3025 9.03864 35.2139 8.83561 35.1124 8.63308C32.4884 3.06768 28.9008 0 24.9962 0C21.0917 0 17.4917 3.06768 14.88 8.63308C14.7914 8.83561 14.6899 9.03864 14.6013 9.24117C14.373 9.20354 14.1576 9.17779 13.9422 9.15253C7.83206 8.3538 3.31893 9.73586 1.21439 13.0318C-0.889663 16.3278 -0.243444 21.0053 3.02726 26.2028C3.45857 26.8876 3.92751 27.572 4.43458 28.244C3.92751 28.9283 3.45857 29.6003 3.02726 30.2846C-0.243444 35.4821 -0.889663 40.1725 1.21439 43.4561C2.92575 46.1435 6.24746 47.5508 10.722 47.5508C11.7945 47.5448 12.8656 47.473 13.9293 47.3349C14.1447 47.3096 14.373 47.2715 14.5884 47.2462C14.6775 47.4493 14.7662 47.6518 14.8677 47.8548C17.4917 53.4197 21.0793 56.4879 24.9833 56.4879C28.8879 56.4879 32.4884 53.4197 35.0995 47.8548C35.1881 47.6518 35.2897 47.4493 35.3783 47.2462C35.6066 47.2844 35.822 47.3096 36.0379 47.3349C37.1006 47.479 38.1721 47.5508 39.2447 47.5508C43.7197 47.5508 47.0409 46.1435 48.7523 43.4561C50.8568 40.1601 50.2101 35.4821 46.9399 30.2846C46.5086 29.6003 46.0397 28.9159 45.5326 28.244C46.0397 27.5591 46.5086 26.8876 46.9399 26.2028C50.2483 20.9929 50.895 16.3149 48.778 13.0318ZM17.1747 9.71061C19.3169 5.14697 22.1692 2.53536 24.9962 2.53536C27.8232 2.53536 30.6755 5.14697 32.8177 9.71061C32.8192 9.72002 32.8236 9.72893 32.8306 9.73586C30.1377 10.3836 27.5113 11.2789 24.9833 12.4104C22.4584 11.2734 19.8309 10.3776 17.1366 9.73586C17.1619 9.73586 17.1619 9.72299 17.1747 9.71061ZM36.4182 28.244C36.4187 30.2722 36.3088 32.2995 36.0884 34.3159C34.5083 35.591 32.8578 36.776 31.1445 37.8654C29.1672 39.1351 27.1092 40.2745 24.9833 41.2758C22.862 40.2666 20.804 39.1277 18.8227 37.8654C17.1114 36.773 15.4609 35.5881 13.8788 34.3159C13.4391 30.2797 13.4391 26.2077 13.8788 22.1715C17.2956 19.4257 21.0228 17.0899 24.9833 15.2121C27.1052 16.2208 29.1627 17.3598 31.1445 18.622C32.8558 19.7144 34.5063 20.8993 36.0884 22.1715C36.3088 24.1884 36.4187 26.2152 36.4182 28.244ZM38.8392 24.5548C40.0806 25.7111 41.2492 26.9431 42.3382 28.244C41.2492 29.5443 40.0806 30.7763 38.8392 31.9326C38.9154 30.7159 38.9535 29.4864 38.9535 28.244C38.9535 27.0015 38.9154 25.772 38.8392 24.5548ZM35.5685 37.9164C35.1683 40.1111 34.5875 42.2691 33.8318 44.3687C31.863 43.924 29.9308 43.3308 28.0515 42.594C29.547 41.8081 31.0429 40.946 32.526 40.0081C33.5659 39.3361 34.5801 38.6389 35.5685 37.9164ZM21.9409 42.594C20.0651 43.3402 18.1319 43.9339 16.1606 44.3687C15.4049 42.2691 14.8241 40.1111 14.424 37.9164C15.4 38.6389 16.4141 39.3361 17.4664 39.9952C18.9495 40.946 20.4455 41.8081 21.9409 42.594ZM11.1533 31.9326C9.91184 30.7763 8.7437 29.5443 7.65429 28.244C8.7437 26.9431 9.91184 25.7111 11.1533 24.5548C11.077 25.772 11.0389 27.0015 11.0389 28.244C11.0389 29.4864 11.077 30.7159 11.1533 31.9326ZM14.424 18.5715C14.8241 16.3763 15.4049 14.2183 16.1606 12.1192C18.1295 12.5634 20.0622 13.1566 21.9409 13.8939C20.4455 14.6798 18.9495 15.5419 17.4664 16.4798C16.4265 17.1518 15.4124 17.849 14.424 18.5715ZM32.5136 16.4798C31.0429 15.5419 29.547 14.6669 28.0386 13.8939C29.9144 13.1477 31.8476 12.554 33.8195 12.1192C34.5746 14.2183 35.1555 16.3763 35.5561 18.5715C34.5801 17.849 33.5659 17.1518 32.5136 16.4798ZM5.16994 24.8465C2.48206 20.5869 1.82297 16.7715 3.34418 14.3881C4.56135 12.4866 7.19822 11.4596 10.7601 11.4596C11.7138 11.4636 12.6666 11.5274 13.6124 11.6498H13.6376C12.6121 14.6318 11.8985 17.7118 11.5083 20.8404C9.55481 22.4701 7.73599 24.2552 6.06969 26.1775C5.75277 25.7467 5.44873 25.303 5.16994 24.8465ZM13.6 44.8253C12.6542 44.9481 11.7014 45.0115 10.7477 45.0154C7.18535 45.0154 4.54848 44.0013 3.3318 42.0869C1.81059 39.7036 2.46968 35.8881 5.15706 31.6286C5.43585 31.1849 5.74039 30.7283 6.05731 30.2846C7.72312 32.2074 9.54194 33.9921 11.4954 35.6217C11.8862 38.7508 12.5997 41.8309 13.6252 44.8124C13.6252 44.8253 13.6124 44.8253 13.6 44.8253ZM32.8177 46.7773C30.6755 51.3409 27.8232 53.9526 24.9962 53.9526C22.1692 53.9526 19.3169 51.3409 17.1747 46.7773C17.1733 46.7679 17.1688 46.759 17.1619 46.752C19.8547 46.1043 22.4812 45.209 25.0091 44.077C27.534 45.2145 30.1615 46.1103 32.8558 46.752C32.8306 46.752 32.8306 46.7644 32.8177 46.7773ZM44.8225 31.6414C47.5104 35.9005 48.1695 39.7164 46.6483 42.0998C45.127 44.4826 41.3874 45.4844 36.3924 44.8253H36.3672C37.3927 41.8433 38.1068 38.7632 38.497 35.6346C40.4505 34.005 42.2693 32.2198 43.9351 30.2975C44.2397 30.7412 44.5437 31.1849 44.8225 31.6414ZM38.4841 20.8533C38.0939 17.7242 37.3803 14.6442 36.3548 11.6626H36.3801C41.3745 11.0159 45.1142 12.0048 46.6354 14.3881C48.1566 16.7715 47.4975 20.5869 44.8101 24.8465C44.5313 25.2902 44.2268 25.7467 43.9099 26.1904C42.2515 24.2646 40.4366 22.4795 38.4841 20.8533Z" fill="#FFFEFF"/>
<path d="M24.9968 23.2236C22.2242 23.2236 19.9766 25.4713 19.9766 28.2438C19.9766 31.0164 22.2242 33.2635 24.9968 33.2635C27.7693 33.2635 30.017 31.0164 30.017 28.2438C30.015 25.4718 27.7683 23.2256 24.9968 23.2236ZM24.9968 30.7282C23.6246 30.7282 22.5119 29.616 22.5119 28.2438C22.5119 26.8717 23.6246 25.759 24.9968 25.759C26.3689 25.759 27.4816 26.8717 27.4816 28.2438C27.4791 29.615 26.3679 30.7262 24.9968 30.7282Z" fill="#FFFEFF"/>
</svg>
