<svg width="50" height="49" viewBox="0 0 50 49" fill="none" xmlns="http://www.w3.org/2000/svg">
<path d="M41.25 0H8.75C3.91751 0 0 3.91751 0 8.75V39.5833C0 44.4158 3.91751 48.3333 8.75 48.3333H41.25C46.0825 48.3333 50 44.4158 50 39.5833V8.75C50 3.91751 46.0825 0 41.25 0Z" fill="#FFFEFF"/>
<path d="M25.7018 13.6751L19.5518 24.2418L26.1789 35.4918C26.3143 35.721 26.256 35.8335 26.008 35.8335H21.8747C21.7724 35.8443 21.6692 35.824 21.5785 35.7753C21.4878 35.7267 21.4139 35.6518 21.3664 35.5605L16.7018 27.0043H16.6664L12.1247 35.5605C12.083 35.642 12.0197 35.7104 11.9419 35.7585C11.8641 35.8066 11.7745 35.8325 11.683 35.8335H7.70805C7.48097 35.8335 7.43722 35.721 7.57263 35.4918L14.0893 24.5501L7.88097 13.6064C7.74555 13.4251 7.79138 13.3335 8.01638 13.3335H12.158C12.2469 13.3271 12.3356 13.3463 12.4139 13.3887C12.4921 13.4312 12.5566 13.4951 12.5997 13.573L16.9747 22.0272H17.008L21.3601 13.573C21.4031 13.4955 21.4672 13.4318 21.5451 13.3893C21.6229 13.3469 21.7113 13.3275 21.7997 13.3335H25.5664C25.8164 13.3335 25.8601 13.448 25.7018 13.6751Z" fill="#051937"/>
<path d="M35.8056 36.25C33.3889 36.25 31.5285 35.5646 30.0848 34.1958C28.641 32.8271 27.916 30.8042 27.916 28.125C27.916 25.6903 28.6924 23.6903 30.2452 22.125C31.0397 21.3026 31.995 20.6526 33.0516 20.2153C34.1082 19.7781 35.2435 19.563 36.3869 19.5833C36.8986 19.5742 37.4094 19.6288 37.9077 19.7458V12.6958C37.9039 12.6694 37.9063 12.6425 37.9147 12.6172C37.9231 12.5919 37.9372 12.5688 37.9559 12.5498C37.9747 12.5309 37.9976 12.5165 38.0228 12.5079C38.0481 12.4992 38.075 12.4965 38.1014 12.5H41.9098C42.016 12.5 42.0702 12.5646 42.0702 12.6958V32.4354C42.0702 33.2688 42.4306 33.9792 42.4868 34.5875C42.4983 34.6477 42.4884 34.7101 42.4587 34.7638C42.429 34.8174 42.3815 34.859 42.3244 34.8813C40.4556 35.7938 38.0056 36.25 35.8056 36.25ZM37.916 33.0229V22.9458C37.7806 22.7083 37.0639 22.5 36.3306 22.5C35.7237 22.4843 35.1208 22.6042 34.5662 22.8511C34.0115 23.098 33.5189 23.4656 33.1243 23.9271C32.1635 25.0525 31.6451 26.4891 31.666 27.9688C31.666 29.7938 32.291 31.0438 33.1056 31.9125C33.4906 32.354 33.9649 32.709 34.4971 32.9539C35.0292 33.1988 35.6073 33.3281 36.1931 33.3333C36.9702 33.3333 37.7306 33.2167 37.916 33.0229Z" fill="#051937"/>
</svg>
